<svg width="26" height="29" viewBox="0 0 26 29" fill="none" xmlns="http://www.w3.org/2000/svg">
<path d="M25.0477 10.9391L16.8307 1.76719C15.8137 0.635499 14.4361 0 13 0C11.5639 0 10.1863 0.635499 9.16934 1.76719L0.952262 10.9391C0.64939 11.275 0.409263 11.6746 0.245802 12.1148C0.0823411 12.555 -0.00120293 13.027 1.30861e-05 13.5035V25.3728C1.30861e-05 26.3348 0.342422 27.2574 0.951915 27.9376C1.56141 28.6179 2.38806 29 3.25001 29H22.75C23.6119 29 24.4386 28.6179 25.0481 27.9376C25.6576 27.2574 26 26.3348 26 25.3728V13.5035C26.0012 13.027 25.9177 12.555 25.7542 12.1148C25.5907 11.6746 25.3506 11.275 25.0477 10.9391ZM16.25 26.5819H9.75V21.8255C9.75 20.8635 10.0924 19.9409 10.7019 19.2607C11.3114 18.5804 12.138 18.1983 13 18.1983C13.862 18.1983 14.6886 18.5804 15.2981 19.2607C15.9076 19.9409 16.25 20.8635 16.25 21.8255V26.5819ZM23.8333 25.3728C23.8333 25.6935 23.7192 26.001 23.516 26.2278C23.3129 26.4545 23.0373 26.5819 22.75 26.5819H18.4167V21.8255C18.4167 20.2221 17.846 18.6845 16.8302 17.5508C15.8143 16.4171 14.4366 15.7802 13 15.7802C11.5634 15.7802 10.1857 16.4171 9.16984 17.5508C8.15402 18.6845 7.58334 20.2221 7.58334 21.8255V26.5819H3.25001C2.96269 26.5819 2.68714 26.4545 2.48398 26.2278C2.28081 26.001 2.16668 25.6935 2.16668 25.3728V13.5035C2.16768 13.1831 2.28172 12.876 2.48409 12.6487L10.7012 3.48042C11.3118 2.80206 12.1384 2.42122 13 2.42122C13.8616 2.42122 14.6882 2.80206 15.2988 3.48042L23.5159 12.6523C23.7175 12.8787 23.8315 13.1843 23.8333 13.5035V25.3728Z" fill="#000001"/>
</svg>
